<svg width="512" height="512" viewBox="0 0 512 512" fill="none" xmlns="http://www.w3.org/2000/svg">
<rect width="512" height="512" fill="white"/>
<path d="M136.683 317.003C143.493 305.781 152.474 296.031 163.102 288.326V288.326C178.636 277.064 197.331 271 216.518 271H250.5H288.166C307.953 271 327.333 276.821 343.854 287.711V287.711C356.145 295.812 366.693 306.324 374.826 318.594V318.594C386.027 335.489 392 355.311 392 375.582V391.959C392 403.303 382.803 412.5 371.459 412.5H141.629C129.684 412.5 120 402.816 120 390.871V373.998C120 354.703 125.293 335.777 135.302 319.281L136.683 317.003Z" fill="black"/>
<circle cx="256.5" cy="175.5" r="76.5" fill="black"/>
</svg>
